<?xml version="1.0" encoding="UTF-8" standalone="no"?>
<svg version="1.1" xmlns="http://www.w3.org/2000/svg" width="30px" height="30px">
<path d="M 27.7618 10.7514 L 22.0078 0.7453 C 21.5465 -0.0536 20.7104 -0.5405 19.8500 -0.5405 L 8.3418 -0.5405 C 7.4198 -0.5405 6.6146 0 6.1839 0.7446 L 0.4298 10.7308 C -0.0311 11.5294 0 12.4869 0.4292 13.2324 L 6.1834 23.2842 C 6.6445 24.0829 7.4808 24.6157 8.3412 24.6157 L 19.8492 24.6157 C 20.7716 24.6157 21.5766 24.0345 22.0074 23.2899 L 27.7614 13.2834 C 28.2225 12.4845 28.1912 11.4966 27.7618 10.7514" fill="#4285f4"/>
<path d="M 18.8016 9.1285 L 16.7204 9.2939 L 16.7296 10.6429 L 15.2016 9.1149 L 13.1836 9.3442 L 13.1793 10.6797 L 11.6257 9.1254 L 9.3879 11.3676 L 10.7780 12.7578 L 9.4288 12.8075 L 9.3977 14.9639 L 19.0496 24.6156 L 19.8492 24.6156 C 20.7716 24.6156 21.5766 24.0346 22.0076 23.2900 L 26.0072 16.3339 Z" fill="black" fill-opacity=".07"/>
<path d="M 11.4362 9.0440 L 9.5748 9.0447 C 9.4289 9.0447 9.3101 9.1639 9.3101 9.3087 L 9.3101 11.1781 C 9.3101 11.3236 9.4289 11.4428 9.5748 11.4428 L 11.4362 11.4428 C 11.5816 11.4428 11.7009 11.3236 11.7009 11.1781 L 11.7009 9.3087 C 11.7009 9.1639 11.5816 9.0440 11.4362 9.0440" fill="white"/>
<path d="M 15.0262 12.6323 L 13.1645 12.6323 C 13.0190 12.6323 12.8996 12.7515 12.8996 12.8970 L 12.9002 14.7664 C 12.9002 14.9117 13.0190 15.0311 13.1645 15.0311 L 15.0256 15.0311 C 15.1711 15.0311 15.2905 14.9117 15.2905 14.7664 L 15.2909 12.8970 C 15.2909 12.7515 15.1717 12.6323 15.0262 12.6323" fill="white"/>
<path d="M 18.6164 12.6323 L 16.7546 12.6323 C 16.6091 12.6323 16.4904 12.7515 16.4904 12.8970 L 16.4904 14.7664 C 16.4904 14.9117 16.6091 15.0311 16.7553 15.0311 L 18.6164 15.0311 C 18.7619 15.0311 18.8811 14.9117 18.8811 14.7664 L 18.8811 12.8970 C 18.8811 12.7515 18.7619 12.6323 18.6164 12.6323" fill="white"/>
<path d="M 11.4362 12.6323 C 11.5816 12.6323 11.7009 12.7522 11.7009 12.8970 L 11.7004 14.7664 C 11.7004 14.9117 11.5816 15.0311 11.4362 15.0311 L 9.5748 15.0311 C 9.4296 15.0311 9.3101 14.9117 9.3101 14.7664 L 9.3095 12.8970 C 9.3095 12.7522 9.4289 12.6323 9.5748 12.6323 Z M 9.8403 14.4965 L 11.1701 14.4965 L 11.1701 13.1665 L 9.8403 13.1665 Z" fill="white"/>
<path d="M 15.0262 9.0440 C 15.1717 9.0440 15.2905 9.1639 15.2905 9.3087 L 15.2905 11.1781 C 15.2905 11.3236 15.1711 11.4428 15.0262 11.4428 L 13.1651 11.4428 C 13.0197 11.4428 12.9002 11.3236 12.9002 11.1781 L 12.9002 9.3087 C 12.9002 9.1639 13.0190 9.0447 13.1645 9.0447 Z M 13.4304 10.9084 L 14.7602 10.9084 L 14.7602 9.5786 L 13.4304 9.5786 Z" fill="white"/>
<path d="M 18.6164 9.0440 C 18.7619 9.0440 18.8811 9.1639 18.8811 9.3087 L 18.8806 11.1781 C 18.8806 11.3236 18.7619 11.4428 18.6164 11.4428 L 16.7553 11.4428 C 16.6098 11.4428 16.4904 11.3236 16.4904 11.1781 L 16.4897 9.3087 C 16.4897 9.1639 16.6091 9.0447 16.7553 9.0447 Z M 17.0205 10.9084 L 18.3503 10.9084 L 18.3503 9.5786 L 17.0205 9.5786 Z" fill="white"/>
</svg>