<?xml version="1.0" encoding="UTF-8" standalone="no"?>
<svg version="1.1" xmlns="http://www.w3.org/2000/svg" width="36.5px" height="36.5px">
    <linearGradient x1="50%" x2="50%" id="linearGradient-3">
        <stop stop-color="#4387FD" offset="0%"/>
        <stop stop-color="#4683EA" offset="100%"/>
    </linearGradient>
    <g id="BASE" fill="url(#linearGradient-3)">
        <path d="M8.08519174,30.8199425 L0.713301808,17.8709165 C0.136454074,16.8576598 0.136454074,15.6092734 0.713301808,14.5960167 L8.08519174,1.64701912 C8.66203948,0.633762455 9.72811677,0.00956923492 10.8818122,0.00956923492 L25.6255921,0.00956923492 C26.7792876,0.00956923492 27.8453649,0.633762455 28.4222126,1.64701912 L35.7941025,14.5960167 C36.3709503,15.6092734 36.3709503,16.8576598 35.7941025,17.8709165 L28.4222126,30.819914 C27.8453649,31.8331707 26.7792876,32.4573639 25.6255921,32.4573639 L10.8818122,32.4573639 C9.72811677,32.4573924 8.66206756,31.8331992 8.08519174,30.8199425 L8.08519174,30.8199425 Z" id="Shape"/>
    </g>
    <g id="shadow" transform="translate(12.637237, 9.113557)" fill="#000000" opacity="0.07">
        <polygon id="Shape" points="21.3896746 12.2700376 11.2213888 1.9579623 5.80377735 0.0711711847 0.0584963648 4.47367429 3.65075728 8.11673329 0.0468139415 8.47273161 3.41087445 11.8843917 0.00547613593 12.3171433 11.3852236 23.857783 15.0418221 23.4335469"/>
    </g>
    <g id="art" transform="translate(12.637237, 7.689564)" fill="#FFFFFF">
        <g id="Group">
            <path d="M5.61654967,0.065589131 L8.4248245e-05,3.35410228 L8.4248245e-05,5.89732582 L5.61654967,9.18586745 L11.2330151,5.89732582 L11.2330151,3.35410228 L5.61654967,0.065589131 L5.61654967,0.065589131 Z M8.97134287,4.58819183 L8.96898391,4.58679631 L5.61654967,6.54971411 L2.26408734,4.58679631 L2.26172839,4.58819183 L2.26172839,4.58542928 L2.26408734,4.58679631 L5.61654967,2.623907 L8.96898391,4.58679631 L8.97134287,4.58542928 L8.97134287,4.58819183 L8.97134287,4.58819183 Z" id="Shape"/>
            <polygon id="Shape" points="0 7.33416353 0 9.87741555 5.61654967 13.1659002 11.2330993 9.87741555 11.2330993 7.33416353 5.61654967 10.6227052"/>
            <polygon id="Shape" points="0 11.1905367 0 13.7337603 5.61654967 17.0222734 11.2330993 13.7337603 11.2330993 11.1905367 5.61654967 14.4790784"/>
        </g>
    </g>
</svg>