<?xml version="1.0" encoding="UTF-8" standalone="no"?>
<svg version="1.1" xmlns="http://www.w3.org/2000/svg" xmlns:xlink="http://www.w3.org/1999/xlink" width="30px" height="30px">
<path d="M0.0138569363,13.4310132 C0.0513097122,13.7978483 0.165321506,14.1586117 0.355892317,14.4885572 L6.418302,24.9869829 C6.86272414,25.7564348 7.66026658,26.2492501 8.53954419,26.3084065 L21.0219202,26.3084065 C21.9011978,26.2492501 22.6987402,25.7564348 23.1431624,24.9869829 L29.2055721,14.4885572 C29.6801721,13.6672565 29.6801721,12.6550039 29.2055721,11.8334723 L23.1431624,1.33527747 C22.6687932,0.513745871 21.7921111,0.00761960169 20.8431419,0.00761960169 L8.7183225,0.00761960169 C7.7693533,0.00761960169 6.89267113,0.513745871 6.418302,1.33527747 L0.355892317,11.8334723 C0.165321506,12.1635105 0.0513097122,12.5243295 0.0138569363,12.8911827 L0.0138569364,13.4310135" id="path-21"/>
<g id="pubsub-logo" transform="translate(0,0)">
    <g id="Group-3">
        <mask id="mask-22" fill="white">
            <use xlink:href="#path-21"/>
        </mask>
        <use id="Clip-2" fill="#4285F4" xlink:href="#path-21"/>
        <path d="M10.6940907,9.439532 L8.92271231,11.1419357 L11.9317461,14.150293 L14.2130597,12.8334873 L14.2130597,11.8618726 L13.3028899,12.0477447 L10.6940907,9.439532 M15.8793563,6.31688069 L15.2874342,7.42357011 L15.3484047,7.42357011 L15.3484047,12.8334873 L20.0343587,15.5384459 L19.4669171,16.5213745 L14.7807322,13.8164159 L10.0945472,16.5213745 L9.91348327,16.2078164 L8.72732951,17.1505689 L17.8930001,26.3144099 L20.8431419,26.3144099 C21.7921111,26.3144099 22.6687932,25.8082836 23.1431624,24.9869829 L27.9175698,16.7190224 L20.6048026,9.40789911 L19.2519037,9.68843899 L15.8793563,6.31688069" id="Fill-1" fill-opacity="0.1" fill="#000000" mask="url(#mask-22)"/>
    </g>
    <path d="M19.1359673,9.22779944 C19.7239633,8.88838081 20.4759331,9.08972302 20.815428,9.67781773 C21.1549229,10.2656815 20.9535355,11.0174822 20.3655395,11.3569009 C19.7773125,11.6963195 19.0253428,11.4949773 18.6858478,10.9071135 C18.3463529,10.3190188 18.5477404,9.56721806 19.1359673,9.22779944" id="Fill-4" fill="#FFFFFF"/>
    <path d="M9.19592491,11.3569009 C8.60792891,11.0174822 8.40654143,10.2656815 8.74603637,9.67781773 C9.08553131,9.08972302 9.83750106,8.88838081 10.4254971,9.22779944 C11.013724,9.56721806 11.2151115,10.3190188 10.8756166,10.9071135 C10.5361216,11.4949773 9.78415186,11.6963195 9.19592491,11.3569009" id="Fill-5" fill="#FFFFFF"/>
    <path d="M16.0105353,18.8986903 C16.0105353,19.5775275 15.459953,20.127986 14.7807322,20.127986 C14.1015114,20.127986 13.5509291,19.5775275 13.5509291,18.8986903 C13.5509291,18.2196221 14.1015114,17.6691636 14.7807322,17.6691636 C15.459953,17.6691636 16.0105353,18.2196221 16.0105353,18.8986903" id="Fill-6" fill="#FFFFFF"/>
    <path d="M17.2220934,13.915009 C17.1075428,14.2855987 16.9112362,14.6201685 16.6537281,14.8977067 L19.4669171,16.5213745 L20.0343587,15.5384459 L17.2220934,13.915009" id="Fill-7" fill="#FFFFFF"/>
    <polyline id="Fill-8" fill="#FFFFFF" points="11.9317461 14.150293 9.52710569 15.5384459 9.91348327 16.2078164 12.1846351 14.4031253 11.9317461 14.150293"/>
    <path d="M12.3393709,13.915009 L11.9317461,14.150293 L12.1846351,14.4031253 L9.91348327,16.2078164 L10.0945472,16.5213745 L12.9077363,14.8977067 C12.6502282,14.6201685 12.4539216,14.2855987 12.3393709,13.915009" id="Fill-9" fill="#FFFFFF"/>
    <path d="M15.2874342,7.42357011 L14.2130597,7.42357011 L14.2130597,10.6706749 C14.2139835,10.670444 14.2151382,10.6702131 14.216062,10.6699822 L14.2149073,10.6688277 L14.8003628,8.33468976 L15.2874342,7.42357011" id="Fill-10" fill="#FFFFFF"/>
    <path d="M15.3484047,7.42357011 L15.2874342,7.42357011 L14.8003628,8.33468976 L14.2149073,10.6688277 L14.216062,10.6699822 C14.3978188,10.6288826 14.5867351,10.6074091 14.7807322,10.6074091 C14.975884,10.6074091 15.1657241,10.6293444 15.3484047,10.6706749 L15.3484047,7.42357011" id="Fill-11" fill="#FFFFFF"/>
    <path d="M15.3484047,12.8334873 L15.3484047,13.1611302 L14.7807322,13.1611302 L15.0645684,13.6527099 L14.7807322,13.8164159 L16.6537281,14.8977067 C16.9112362,14.6201685 17.1075428,14.2855987 17.2220934,13.915009 L15.3484047,12.8334873" id="Fill-12" fill="#EDEDED"/>
    <path d="M14.2130597,12.8334873 L12.3393709,13.915009 C12.4539216,14.2855987 12.6502282,14.6201685 12.9077363,14.8977067 L15.0645684,13.6527099 L14.7807322,13.1611302 L14.2130597,13.1611302 L14.2130597,12.8334873" id="Fill-13" fill="#EDEDED"/>
    <path d="M14.216062,10.6699822 C14.2151382,10.6702131 14.2139835,10.670444 14.2130597,10.6706749 L14.2130597,11.8618726 L15.2054473,11.6591451 L14.216062,10.6699822" id="Fill-14" fill="#FFFFFF"/>
    <path d="M14.7807322,10.6074091 C14.5867351,10.6074091 14.3978188,10.6288826 14.216062,10.6699822 L15.2054473,11.6591451 L14.2130597,11.8618726 L14.2130597,13.1611302 L15.3484047,13.1611302 L15.3484047,10.6706749 C15.1657241,10.6293444 14.975884,10.6074091 14.7807322,10.6074091" id="Fill-15" fill="#EDEDED"/>
    <path d="M16.767355,13.1611302 C16.767355,14.2581219 15.8779706,15.1473064 14.7807322,15.1473064 C13.6834938,15.1473064 12.7941094,14.2581219 12.7941094,13.1611302 C12.7941094,12.0641384 13.6834938,11.174954 14.7807322,11.174954 C15.8779706,11.174954 16.767355,12.0641384 16.767355,13.1611302" id="Fill-16" fill="#FFFFFF"/>
    <path d="M9.03056547,14.6785854 C9.77699244,14.2477316 10.7315044,14.5033346 11.1624551,15.2495937 C11.5934059,15.9960838 11.3377454,16.9503812 10.5910875,17.381235 C9.84466048,17.8120889 8.89014851,17.5564859 8.45919779,16.8099958 C8.02824707,16.0637366 8.28390754,15.1094392 9.03056547,14.6785854" id="Fill-17" fill="#FFFFFF"/>
    <path d="M18.9703769,17.381235 C18.223719,16.9503812 17.9680585,15.9960838 18.3990092,15.2495937 C18.82996,14.5033346 19.7844719,14.2477316 20.5308989,14.6785854 C21.2775568,15.1094392 21.5332173,16.0637366 21.1022666,16.8099958 C20.6713159,17.5564859 19.7168039,17.8120889 18.9703769,17.381235" id="Fill-18" fill="#FFFFFF"/>
    <path d="M16.3417161,7.42357011 C16.3417161,8.28550869 15.6428646,8.98420308 14.7807322,8.98420308 C13.9185998,8.98420308 13.2197483,8.28550869 13.2197483,7.42357011 C13.2197483,6.56186243 13.9185998,5.86293715 14.7807322,5.86293715 C15.6428646,5.86293715 16.3417161,6.56186243 16.3417161,7.42357011" id="Fill-19" fill="#FFFFFF"/>
</g>
</svg>