<?xml version="1.0" encoding="UTF-8" standalone="no"?>
<svg version="1.1" xmlns="http://www.w3.org/2000/svg" width="36.5px" height="36.5px">
<linearGradient x1="50%" x2="50%" id="linearGradient-3">
<stop stop-color="#4387FD" offset="0%"/>
<stop stop-color="#4683EA" offset="100%"/>
</linearGradient>
<g id="BASE" fill="url(#linearGradient-3)">
<path d="M8.08519174,30.8199425 L0.713301808,17.8709165 C0.136454074,16.8576598 0.136454074,15.6092734 0.713301808,14.5960167 L8.08519174,1.64701912 C8.66203948,0.633762455 9.72811677,0.00956923492 10.8818122,0.00956923492 L25.6255921,0.00956923492 C26.7792876,0.00956923492 27.8453649,0.633762455 28.4222126,1.64701912 L35.7941025,14.5960167 C36.3709503,15.6092734 36.3709503,16.8576598 35.7941025,17.8709165 L28.4222126,30.819914 C27.8453649,31.8331707 26.7792876,32.4573639 25.6255921,32.4573639 L10.8818122,32.4573639 C9.72811677,32.4573924 8.66206756,31.8331992 8.08519174,30.8199425 L8.08519174,30.8199425 Z" id="Shape"/>
</g>
<g id="shadow" transform="translate(12.637237, 9.113557)" fill="#000000" opacity="0.07">
<polygon id="Shape" points="21.3896746 12.2700376 11.2213888 1.9579623 5.80377735 0.0711711847 0.0584963648 4.47367429 3.65075728 8.11673329 0.0468139415 8.47273161 3.41087445 11.8843917 0.00547613593 12.3171433 11.3852236 23.857783 15.0418221 23.4335469"/>
</g>
<path fill="#FFFFFF" transform="translate(6,4.3) scale(1.2,1.2)" d="M17,10c0-3.9-3.2-7-7-7c-3.9,0-7,3.2-7,7c0,3.8,3.1,7,6.9,7c0,0,0.1,0,0.1,0l0,0c0,0,0,0,0.1,0
c0.1,0,0.1,0,0.2,0l0,0c0,0,0,0,0.1,0C14,16.9,17,13.8,17,10z M3.5,10.3h2.3c0,1.2,0.2,2.3,0.6,3.1c-1-0.2-1.8-0.3-2.1-0.4
C3.8,12.2,3.5,11.2,3.5,10.3z M4.2,7.1c0,0,0.8-0.2,2.1-0.5C6,7.5,5.8,8.5,5.7,9.8H3.5C3.5,8.8,3.8,7.9,4.2,7.1L4.2,7.1z M16.5,9.8
h-2.1c0-1.2-0.2-2.2-0.6-3.1c1,0.2,1.7,0.3,2,0.4C16.2,7.9,16.5,8.8,16.5,9.8z M13.9,9.8h-3.6V6.4c1.1,0,2.1,0.1,3,0.2
C13.6,7.4,13.8,8.5,13.9,9.8z M10.3,5.9V3.6c0.6,0.2,1.8,0.9,2.7,2.5C12.2,6,11.3,5.9,10.3,5.9z M9.8,5.9c-1,0-1.9,0.1-2.7,0.2
C8,4.5,9.2,3.9,9.8,3.6V5.9z M9.8,6.4v3.4H6.2c0-1.3,0.3-2.3,0.6-3.2C7.7,6.5,8.7,6.4,9.8,6.4z M6.2,10.3h3.5v3.4
c-1,0-2-0.1-2.9-0.2C6.5,12.6,6.3,11.6,6.2,10.3z M9.8,14.2v2.3C9.2,16.2,8,15.5,7.2,14C8,14.1,8.9,14.2,9.8,14.2z M10.3,14.2
c1,0,1.9-0.1,2.7-0.2c-0.9,1.6-2.1,2.3-2.7,2.5V14.2z M10.3,13.7v-3.4h3.6c0,1.3-0.3,2.3-0.6,3.2C12.4,13.6,11.4,13.7,10.3,13.7z
M14.4,10.3h2.1c0,1-0.3,1.8-0.7,2.7c-0.1,0-0.9,0.2-2,0.4C14.1,12.5,14.4,11.5,14.4,10.3z M15.5,6.5c-0.5-0.1-1.1-0.2-1.9-0.3
c-0.6-1.3-1.5-2-2.2-2.5C13.1,4,14.6,5.1,15.5,6.5z M8.7,3.6C8.5,3.8,8.1,4,7.8,4.3c-0.4,0.4-0.9,1-1.3,1.8C5.6,6.3,4.9,6.4,4.5,6.5
C5.4,5,6.9,4,8.7,3.6z M4.5,13.6c0.5,0.1,1.2,0.2,2,0.4c0.6,1.2,1.4,2,2.1,2.5C6.9,16,5.5,15,4.5,13.6z M11.6,16.3
c0.2-0.2,0.5-0.4,0.7-0.6c0.4-0.4,0.9-1,1.3-1.8c0.8-0.1,1.5-0.3,1.9-0.4C14.6,14.9,13.2,15.9,11.6,16.3z"/>
</svg>