<?xml version="1.0" encoding="UTF-8" standalone="no"?>
<svg version="1.1" xmlns="http://www.w3.org/2000/svg" width="30px" height="30px">
<g id="storage-logo-copy" transform="translate(0,1.5)">
	<g id="Group-3">
		<path d="M6.45583593,25.4472106 L0.357857409,14.7555692 C-0.119285803,13.9189629 -0.119285803,12.8881812 0.357857409,12.0515749 L6.45583593,1.35993348 C6.93303722,0.523327186 7.81484619,0.00793632556 8.76919069,0.00793632556 L20.9651477,0.00793632556 C21.9194922,0.00793632556 22.8013012,0.523327186 23.2785025,1.35993348 L29.376481,12.0515749 C29.8536242,12.8881812 29.8536242,13.9189629 29.376481,14.7555692 L23.2785025,25.4472106 C22.8013012,26.2838169 21.9194922,26.7992078 20.9651477,26.7992078 L8.76919069,26.7992078 C7.81484619,26.7992078 6.93303722,26.2838169 6.45583593,25.4472106" id="Clip-2" fill="#4285F4"/>
		<path d="M19.8588213,10.2409169 L11.45527,11.0226744 L9.82673425,12.666258 L11.2108909,14.0674016 L9.84067222,16.5309546 L19.9844372,26.7992078 L20.9651477,26.7992078 C21.9194922,26.7992078 22.8013012,26.2838169 23.2785025,25.4472106 L27.5252281,18.0014088 L19.8588213,10.2409169" id="Fill-1" fill-opacity="0.1" fill="#000000"/>
	</g>
	<g id="storage" transform="translate(9.682534, 9.816701)" fill="#FFFFFF">
		<path d="M9.99317686,0.35808022 L0.367613989,0.358374158 C0.21267021,0.358374158 0.0858927471,0.486707481 0.0858927471,0.643552789 L0.0861831215,2.65796858 C0.0861831215,2.81451995 0.212960584,2.94285327 0.367613989,2.94285327 L9.99294456,2.94285327 C10.1478883,2.94285327 10.2746658,2.81451995 10.2746658,2.65796858 L10.2746658,0.643258851 C10.2746658,0.486707481 10.1481787,0.35808022 9.99317686,0.35808022 M8.50274314,2.23340456 C8.18524778,2.23340456 7.92774376,1.97144702 7.92716301,1.65034917 C7.92774376,1.32778163 8.18437665,1.06782288 8.50274314,1.06782288 C8.82087733,1.06782288 9.07867173,1.32719375 9.07867173,1.65034917 C9.07867173,1.9720349 8.82087733,2.23340456 8.50274314,2.23340456" id="Fill-4"/>
		<path d="M9.99317686,4.23030164 L0.367613989,4.23059558 C0.21267021,4.23059558 0.0858927471,4.35904648 0.0858927471,4.51618572 L0.0861831215,6.53019 C0.0861831215,6.68674137 0.212960584,6.81536863 0.367613989,6.81536863 L9.99294456,6.81536863 C10.1478883,6.81536863 10.2746658,6.68674137 10.2746658,6.53019 L10.2746658,4.51577421 C10.2746658,4.35904648 10.1481787,4.23030164 9.99317686,4.23030164 M8.50274314,6.10562598 C8.18524778,6.10562598 7.92774376,5.84384481 7.92716301,5.52257059 C7.92774376,5.20000305 8.18437665,4.94016187 8.50274314,4.94016187 C8.82087733,4.94016187 9.07867173,5.19982669 9.07867173,5.52257059 C9.07867173,5.84466784 8.82087733,6.10562598 8.50274314,6.10562598" id="Fill-5"/>
	</g>
</g>
</svg>